<svg height="143.97485mm" viewBox="0 0 143.97485 143.97485" width="143.97485mm" xmlns="http://www.w3.org/2000/svg"><g fill="#0093dd" stroke="#000" stroke-linecap="round" stroke-linejoin="round" stroke-width="3" transform="translate(-66.386577 -31.97208)"><path d="m132.94831 48.321295.00004-14.849223c-20.81284 0-37.685032 16.87219-37.685029 37.685037.000003 10.406425 4.217927 19.827828 11.037569 26.647471 3.40982 3.40982 7.47002 6.16902 11.9786 8.07599v7.84913s4.81107-1.05954 4.81107 5.12321-4.81107 5.12268-4.81107 5.12268v10.47327s4.93554-1.13435 5.07824 5.38468-5.07824 4.84983-5.07824 4.84983v11.54245c0 10.09425 6.54241 18.22111 14.66886 18.22111l2.90756-8.98265-8.69345-10.58333 7.18154-9.07143-5.29167-11.33928 6.4256-12.09524-5.66964-11.33929 7.9375-9.82738-8.31548-11.71726 10.20536-9.449406-6.6873-10.014201c-5.99402.000019-10.85312-4.859084-10.85309-10.853084-.00003-5.994 4.85906-10.853103 10.85305-10.853084"/><path d="m181.48453 71.157109c0-20.812847-16.87219-37.685032-37.68504-37.685037l-.00002 14.849223c5.99402-.000025 10.85311 4.85908 10.85311 10.853084s-4.85909 10.853109-10.85309 10.853084c-.35372-.529381 4.45823 6.676134 6.68732 10.014201l-10.20536 9.449406 8.31548 11.71726-7.9375 9.82738 5.66964 11.33929-6.4256 12.09524 5.29167 11.33928-7.18154 9.07143 8.69345 10.58333-2.90756 8.98265c8.12647 0 14.66836-5.15048 14.66836-18.75545 0 0-4.00906 1.96784-4.00906-7.79539 0-9.76322 4.00906-7.79539 4.00906-7.79539v-12.87363s-4.00906 2.76987-4.00906-4.32066c0-7.09054 4.00906-4.32119 4.00906-4.32119v-12.33878-.36587c4.50857-1.90697 8.56878-4.66617 11.9786-8.07599 6.81964-6.819643 11.03808-16.241046 11.03808-26.647471"/></g></svg>