<?xml version="1.0" encoding="UTF-8" standalone="no"?>
<svg
   height="148.96883"
   viewBox="0 0 43.590519 39.414669"
   width="164.75157"
   version="1.1"
   id="svg8"
   sodipodi:docname="logo.svg"
   inkscape:version="1.2.1 (9c6d41e410, 2022-07-14)"
   inkscape:export-filename="logo.png"
   inkscape:export-xdpi="96"
   inkscape:export-ydpi="96"
   xmlns:inkscape="http://www.inkscape.org/namespaces/inkscape"
   xmlns:sodipodi="http://sodipodi.sourceforge.net/DTD/sodipodi-0.dtd"
   xmlns="http://www.w3.org/2000/svg"
   xmlns:svg="http://www.w3.org/2000/svg">
  <defs
     id="defs12">
    <filter
       x="-0.022547558"
       width="1.0450951"
       y="-0.094039879"
       height="1.1880798"
       style="color-interpolation-filters:sRGB"
       inkscape:label="Felt Feather"
       id="filter5424">
      <feGaussianBlur
         stdDeviation="0.2 0.2"
         result="blur"
         id="feGaussianBlur5408" />
      <feComposite
         in="SourceGraphic"
         in2="blur"
         operator="atop"
         result="composite1"
         id="feComposite5410" />
      <feComposite
         in2="composite1"
         operator="in"
         result="composite2"
         id="feComposite5412" />
      <feComposite
         in2="composite2"
         operator="in"
         result="composite3"
         id="feComposite5414" />
      <feTurbulence
         type="fractalNoise"
         numOctaves="5"
         seed="1"
         baseFrequency="0.08 0.0494"
         result="turbulence"
         id="feTurbulence5416" />
      <feDisplacementMap
         in="composite3"
         in2="turbulence"
         xChannelSelector="R"
         scale="2"
         yChannelSelector="G"
         result="map"
         id="feDisplacementMap5418" />
      <feColorMatrix
         values="1 0 0 0 0 0 1 0 0 0 0 0 1 0 0 0 0 0 2 -0 "
         result="colormatrix"
         id="feColorMatrix5420" />
      <feComposite
         in="composite3"
         in2="colormatrix"
         operator="xor"
         result="composite4"
         id="feComposite5422" />
    </filter>
    <filter
       x="-0.042450796"
       width="1.0849016"
       y="-0.13766658"
       height="1.2753324"
       style="color-interpolation-filters:sRGB"
       inkscape:label="Felt Feather"
       id="filter15928">
      <feGaussianBlur
         stdDeviation="2 2"
         result="blur"
         id="feGaussianBlur15912" />
      <feComposite
         in="SourceGraphic"
         in2="blur"
         operator="atop"
         result="composite1"
         id="feComposite15914" />
      <feComposite
         in2="composite1"
         operator="in"
         result="composite2"
         id="feComposite15916" />
      <feComposite
         in2="composite2"
         operator="in"
         result="composite3"
         id="feComposite15918" />
      <feTurbulence
         type="fractalNoise"
         numOctaves="5"
         seed="1"
         baseFrequency="0.08 0.0494"
         result="turbulence"
         id="feTurbulence15920" />
      <feDisplacementMap
         in="composite3"
         in2="turbulence"
         xChannelSelector="R"
         scale="2"
         yChannelSelector="G"
         result="map"
         id="feDisplacementMap15922" />
      <feColorMatrix
         values="1 0 0 0 0 0 1 0 0 0 0 0 1 0 0 0 0 0 8.5 -7 "
         result="colormatrix"
         id="feColorMatrix15924" />
      <feComposite
         in="composite3"
         in2="colormatrix"
         operator="xor"
         result="composite4"
         id="feComposite15926" />
    </filter>
  </defs>
  <sodipodi:namedview
     id="namedview10"
     pagecolor="#ffffff"
     bordercolor="#000000"
     borderopacity="0.25"
     inkscape:showpageshadow="2"
     inkscape:pageopacity="0.0"
     inkscape:pagecheckerboard="0"
     inkscape:deskcolor="#d1d1d1"
     inkscape:document-units="px"
     showgrid="false"
     inkscape:zoom="2.6720152"
     inkscape:cx="-64.370892"
     inkscape:cy="58.757152"
     inkscape:window-width="1920"
     inkscape:window-height="1057"
     inkscape:window-x="0"
     inkscape:window-y="0"
     inkscape:window-maximized="1"
     inkscape:current-layer="svg8" />
  <path
     d="m 133.5282,144.22464 -14.84923,-4e-5 c 0,20.81284 16.87219,37.68503 37.68504,37.68502 10.40642,0 19.82783,-4.21792 26.64747,-11.03756 3.40982,-3.40982 6.16902,-7.47002 8.07599,-11.9786 h 7.84913 c 0,0 -1.05954,-4.81107 5.12321,-4.81107 6.18275,0 5.12268,4.81107 5.12268,4.81107 h 10.47327 c 0,0 -1.13435,-4.93554 5.38468,-5.07824 6.51903,-0.1427 4.84983,5.07824 4.84983,5.07824 h 11.54245 c 10.09425,0 18.22111,-6.54241 18.22111,-14.66886 l -8.98265,-2.90756 -10.58333,8.69345 -9.07143,-7.18154 -11.33928,5.29167 -12.09524,-6.4256 -11.33929,5.66964 -9.82738,-7.9375 -11.71726,8.31548 -9.44941,-10.20536 -10.0142,6.6873 c 2e-5,5.99402 -4.85908,10.85312 -10.85308,10.85309 -5.994,3e-5 -10.8531,-4.85906 -10.85308,-10.85305"
     id="path2"
     style="fill:#0093dd;stroke:#000000;stroke-width:2.36899;stroke-linecap:round;stroke-linejoin:round;stroke-dasharray:none;filter:url(#filter15928)"
     transform="matrix(0.28477024,0,0,0.28477024,-32.088656,-14.127315)" />
  <path
     d="m 135.74716,31.546757 c -20.81284,0 -37.685033,16.87219 -37.685038,37.685045 l 14.849228,2e-5 c -3e-5,-5.99402 4.85908,-10.85311 10.85308,-10.85311 5.99401,0 10.85311,4.85909 10.85309,10.85309 -0.52938,0.35372 6.67613,-4.45823 10.0142,-6.68732 l 9.4494,10.20536 11.71726,-8.31548 9.82738,7.9375 11.33929,-5.66964 12.09524,6.4256 11.33928,-5.29167 9.07143,7.18154 10.58333,-8.69345 8.98265,2.90756 c 0,-8.12647 -5.15048,-14.66836 -18.75545,-14.66836 0,0 1.96784,4.00906 -7.79539,4.00906 -9.76322,0 -7.79539,-4.00906 -7.79539,-4.00906 h -12.87363 c 0,0 2.76987,4.00906 -4.32066,4.00906 -7.09054,0 -4.32119,-4.00906 -4.32119,-4.00906 h -12.33878 -0.36587 c -1.90697,-4.50857 -4.66617,-8.568785 -8.07599,-11.978605 -6.81964,-6.81964 -16.24104,-11.03808 -26.64747,-11.03808"
     id="path4"
     style="fill:#0093dd;stroke:#000000;stroke-width:2.36899;stroke-linecap:round;stroke-linejoin:round;stroke-dasharray:none;filter:url(#filter15928)"
     transform="matrix(0.28477025,0,0,0.28477025,-26.217592,-7.2793717)" />
  <text
     xml:space="preserve"
     style="font-weight:600;font-size:8.30188px;font-family:'Clone Rounded PE';-inkscape-font-specification:'Clone Rounded PE Semi-Bold';fill:#0093dd;fill-opacity:1;stroke-width:0.204816;stroke-dasharray:none;stroke-opacity:0.5;filter:url(#filter5424);stop-color:#000000"
     x="16.997475"
     y="5.4990969"
     id="text301"
     transform="matrix(1.6147615,0,0,1.6147615,-27.144857,15.157654)"><tspan
       sodipodi:role="line"
       style="font-style:normal;font-variant:normal;font-weight:800;font-stretch:normal;font-size:8.30188px;font-family:'Clone Rounded PE';-inkscape-font-specification:'Clone Rounded PE Ultra-Bold';fill:#0093dd;fill-opacity:1;stroke:#000000;stroke-width:0.204816;stroke-dasharray:none;stroke-opacity:1"
       x="16.997475"
       y="5.4990969"
       id="tspan305"
       dy="0"><tspan
   dy="0"
   id="tspan462"
   style="font-style:normal;font-variant:normal;font-weight:800;font-stretch:normal;font-size:8.30188px;font-family:'Clone Rounded PE';-inkscape-font-specification:'Clone Rounded PE Ultra-Bold';fill:#0093dd;fill-opacity:1;stroke:#000000;stroke-width:0.204816;stroke-dasharray:none;stroke-opacity:1">SKS</tspan>ick</tspan></text>
</svg>
